<svg id="图层_1" data-name="图层 1" xmlns="http://www.w3.org/2000/svg" viewBox="0 0 55 55.1"><defs><style>.cls-1{fill:#fff;}.cls-2{fill:none;stroke:#ccc;stroke-miterlimit:10;stroke-width:0.98px;}.cls-3{fill:#ff7423;}.cls-4{fill:#fff9e4;}</style></defs><title>cat</title><g id="Page-1"><g id="iPhone-8"><g id="分组-3"><circle id="椭圆形" class="cls-1" cx="27.5" cy="27.6" r="27.5"/><path id="椭圆形-2" data-name="椭圆形" class="cls-2" d="M.51,27.38a27,27,0,0,1,54,0" transform="translate(0 0.1)"/><g id="购物车"><path id="形状" class="cls-3" d="M42.31,9a1.68,1.68,0,0,0-1.25-.55H13l.17.62a.82.82,0,0,1-.58,1,.86.86,0,0,1-.23,0,.84.84,0,0,1-.81-.62l-.29-1,5,18.1a1.68,1.68,0,0,0,1.6,1.21H38.94a1.66,1.66,0,0,0,1.64-1.37l2.1-16.07A1.56,1.56,0,0,0,42.31,9ZM15.8,13.28a.82.82,0,1,1,.83-.82A.83.83,0,0,1,15.8,13.28Zm20.94,3.39-1.51,7a.84.84,0,0,1-.81.66.41.41,0,0,1-.17,0,.83.83,0,0,1-.64-1l1.51-7a.84.84,0,0,1,1-.64.81.81,0,0,1,.64,1Z" transform="translate(0 0.1)"/><path id="路径" class="cls-3" d="M12.32,10a.94.94,0,0,0,.23,0,.82.82,0,0,0,.58-1L13,8.4,11.65,3.6A1.68,1.68,0,0,0,10,2.39H6.26A.82.82,0,1,0,6.26,4H10l1.2,4.37.29,1a.83.83,0,0,0,.79.62Z" transform="translate(0 0.1)"/><path id="路径-2" data-name="路径" class="cls-4" d="M36.1,15.7a.8.8,0,0,0-1,.64l-1.51,7a.79.79,0,0,0,.64,1,.52.52,0,0,0,.17,0,.84.84,0,0,0,.81-.66l1.51-7a.81.81,0,0,0-.64-1Z" transform="translate(0 0.1)"/><path id="路径-3" data-name="路径" class="cls-4" d="M15,12.46a.83.83,0,1,0,.83-.82A.83.83,0,0,0,15,12.46Z" transform="translate(0 0.1)"/><path id="形状-2" data-name="形状" class="cls-3" d="M18.56,30.56a3.68,3.68,0,0,0-1.1,2.54,3.45,3.45,0,0,0,1,2.54,3.55,3.55,0,0,0,2.51,1h.06A3.74,3.74,0,0,0,24.75,33a3.45,3.45,0,0,0-1-2.54,3.67,3.67,0,0,0-5.15.06Zm14.11,0a3.53,3.53,0,0,0,2.45,6.09,3.74,3.74,0,0,0,2.61-1.09,3.56,3.56,0,0,0,.06-5.07,3.66,3.66,0,0,0-5.13.06Z" transform="translate(0 0.1)"/></g></g></g></g></svg>