<?xml version="1.0" encoding="UTF-8"?>
<svg width="38px" height="35px" viewBox="0 0 38 35" version="1.1" xmlns="http://www.w3.org/2000/svg" xmlns:xlink="http://www.w3.org/1999/xlink">
    <!-- Generator: Sketch 53.2 (72643) - https://sketchapp.com -->
    <title>购物车</title>
    <desc>Created with Sketch.</desc>
    <g id="Page-1" stroke="none" stroke-width="1" fill="none" fill-rule="evenodd">
        <g id="iPhone-8" transform="translate(-21.000000, -596.000000)" fill-rule="nonzero">
            <g id="购物车" transform="translate(21.000000, 596.000000)">
                <path d="M37.522691,6.69759115 C37.2060243,6.34342448 36.7415799,6.13509115 36.2560243,6.13509115 L7.67157986,6.13509115 L7.84046875,6.76009115 C7.96713542,7.19759115 7.69269097,7.65592448 7.24935764,7.78092448 C7.16491319,7.80175781 7.10157986,7.80175781 7.01713542,7.80175781 C6.63713542,7.80175781 6.29935764,7.55175781 6.19380208,7.17675781 L5.89824653,6.13509115 L10.9649132,24.5100911 C11.1760243,25.2392578 11.8515799,25.7392578 12.5904687,25.7392578 L34.102691,25.7392578 C34.9260243,25.7392578 35.622691,25.1559245 35.7704687,24.3434245 L37.902691,8.03092448 C37.9871354,7.53092448 37.8393576,7.05175781 37.522691,6.69759115 Z M10.5638021,11.0934245 C10.0993576,11.0934245 9.71935764,10.7184245 9.71935764,10.2600911 C9.71935764,9.80175781 10.0993576,9.42675781 10.5638021,9.42675781 C11.0282465,9.42675781 11.4082465,9.80175781 11.4082465,10.2600911 C11.4082465,10.7184245 11.0282465,11.0934245 10.5638021,11.0934245 Z M31.8649132,14.5309245 L30.3238021,21.6350911 C30.2393576,22.0309245 29.8804687,22.3017578 29.5004687,22.3017578 C29.4371354,22.3017578 29.3738021,22.3017578 29.3315799,22.2809245 C28.8671354,22.1767578 28.592691,21.7392578 28.6771354,21.3017578 L30.2182465,14.1975911 C30.3238021,13.7392578 30.7671354,13.4684245 31.2104687,13.5517578 C31.6749132,13.6559245 31.9704687,14.0934245 31.8649132,14.5309245 L31.8649132,14.5309245 Z" id="Shape" fill="#FF7320"></path>
                <path d="M7.01713542,7.80175781 C7.08046875,7.80175781 7.16491319,7.80175781 7.24935764,7.78092448 C7.69269097,7.65592448 7.96713542,7.19759115 7.84046875,6.76009115 L7.67157986,6.13509115 L6.34157986,1.26009115 C6.13046875,0.530924479 5.45491319,0.0309244792 4.69491319,0.0309244792 L0.852690972,0.0309244792 C0.388246528,0.0309244792 0.0082465279,0.405924479 0.0082465279,0.864257812 C0.0082465279,1.32259115 0.388246528,1.69759115 0.852690972,1.69759115 L4.69491319,1.69759115 L5.91935764,6.13509115 L6.21491319,7.17675781 C6.32046875,7.55175781 6.65824653,7.80175781 7.01713542,7.80175781 L7.01713542,7.80175781 Z" id="Path" fill="#FF7320"></path>
                <path d="M31.2104688,13.5517578 C30.7460243,13.4475911 30.302691,13.7392578 30.2182465,14.1975911 L28.6771354,21.3017578 C28.5715799,21.7600911 28.8671354,22.1975911 29.3315799,22.2809245 C29.3949132,22.3017578 29.4582465,22.3017578 29.5004687,22.3017578 C29.8804687,22.3017578 30.2393576,22.0309245 30.3238021,21.6350911 L31.8649132,14.5309245 C31.9704687,14.0934245 31.6749132,13.6559245 31.2104688,13.5517578 L31.2104688,13.5517578 Z" id="Path" fill="#FFFFFF"></path>
                <path d="M9.71935764,10.2600911 C9.71935764,10.7203284 10.0974283,11.0934245 10.5638021,11.0934245 C11.0301759,11.0934245 11.4082465,10.7203284 11.4082465,10.2600911 C11.4082465,9.79985385 11.0301759,9.42675781 10.5638021,9.42675781 C10.0974283,9.42675781 9.71935764,9.79985385 9.71935764,10.2600911 Z" id="Path" fill="#FFFFFF"></path>
                <path d="M13.3715799,28.6350911 C12.6749132,29.3225911 12.2738021,30.2392578 12.252691,31.2184245 C12.2315799,32.1975911 12.6115799,33.1142578 13.3082465,33.8017578 C13.9838021,34.4684245 14.8915799,34.8434245 15.862691,34.8434245 L15.9260243,34.8434245 C16.9182465,34.8225911 17.8260243,34.4475911 18.5438021,33.7392578 C19.2404687,33.0517578 19.6415799,32.1350911 19.662691,31.1559245 C19.6838021,30.1767578 19.3038021,29.2600911 18.6071354,28.5725911 C17.1715799,27.1559245 14.8282465,27.1975911 13.3715799,28.6350911 L13.3715799,28.6350911 Z M27.7271354,28.6350911 C26.2704687,30.0725911 26.2493576,32.3850911 27.6638021,33.7809245 C28.3604687,34.4684245 29.2893576,34.8225911 30.2182465,34.8225911 C31.1682465,34.8225911 32.1393576,34.4475911 32.8782465,33.7184245 C34.3349132,32.2809245 34.3560243,29.9684245 32.9415799,28.5725911 C31.5271354,27.1767578 29.1838021,27.1975911 27.7271354,28.6350911 L27.7271354,28.6350911 Z" id="Shape" fill="#FF7320"></path>
            </g>
        </g>
    </g>
</svg>