<svg xmlns="http://www.w3.org/2000/svg" viewBox="0 0 36.1 36.08"><defs><style>.cls-1{fill:#03406d;}.cls-2{fill:#004775;}</style></defs><title>资源 1</title><g id="图层_2" data-name="图层 2"><g id="图层_1-2" data-name="图层 1"><polygon class="cls-1" points="21.31 19.48 18.05 21.93 18.37 22.22 24.55 26.83 24.3 27.17 18.04 22.59 11.91 27.17 11.52 26.83 18.05 21.93 14.68 19.38 5.29 26.42 18.12 36.09 30.77 26.61 21.31 19.48"/><polygon class="cls-2" points="29.56 13.48 18.02 4.87 24.55 0 36.1 8.61 29.56 13.48"/><polygon class="cls-2" points="11.54 26.83 0 18.23 6.54 13.35 18.08 21.96 11.54 26.83"/><polygon class="cls-2" points="11.64 0 0.1 8.61 6.64 13.48 18.18 4.87 11.64 0"/><polygon class="cls-2" points="24.55 26.83 36.1 18.23 29.56 13.35 18.02 21.96 24.55 26.83"/></g></g></svg>