<?xml version="1.0" encoding="UTF-8"?>
<svg width="55px" height="55px" viewBox="0 0 55 55" version="1.1" xmlns="http://www.w3.org/2000/svg" xmlns:xlink="http://www.w3.org/1999/xlink">
    <!-- Generator: Sketch 53.1 (72631) - https://sketchapp.com -->
    <title>分组 3</title>
    <desc>Created with Sketch.</desc>
    <g id="Page-1" stroke="none" stroke-width="1" fill="none" fill-rule="evenodd">
        <g id="iPhone-8" transform="translate(-16.000000, -591.000000)">
            <g id="分组-3" transform="translate(16.000000, 591.000000)">
                <circle id="椭圆形" fill="#F1F1F1" cx="27.5" cy="27.5" r="27.5"></circle>
                <g id="购物车" transform="translate(5.000000, 2.000000)" fill-rule="nonzero">
                    <path d="M37.5879478,6.72228705 C37.2707304,6.36681447 36.8054783,6.15771295 36.3190783,6.15771295 L7.68492174,6.15771295 L7.85410435,6.7850175 C7.9809913,7.22413069 7.70606957,7.68415403 7.26196522,7.80961494 C7.17737391,7.83052509 7.11393043,7.83052509 7.02933913,7.83052509 C6.64867826,7.83052509 6.31031304,7.57960327 6.20457391,7.20322054 L5.90850435,6.15771295 L10.9839826,24.6004667 C11.1954609,25.3323221 11.8721913,25.8341657 12.6123652,25.8341657 L34.162,25.8341657 C34.9867652,25.8341657 35.6846435,25.2486814 35.8326783,24.4331855 L37.9686087,8.06053676 C38.0532,7.55869312 37.9051652,7.07775963 37.5879478,6.72228705 Z M10.5821739,11.1343291 C10.1169217,11.1343291 9.73626087,10.7579463 9.73626087,10.297923 C9.73626087,9.83789965 10.1169217,9.46151692 10.5821739,9.46151692 C11.0474261,9.46151692 11.428087,9.83789965 11.428087,10.297923 C11.428087,10.7579463 11.0474261,11.1343291 10.5821739,11.1343291 Z M31.9203304,14.5845041 L30.3765391,21.7148658 C30.2919478,22.1121587 29.9324348,22.3839907 29.5517739,22.3839907 C29.4883304,22.3839907 29.424887,22.3839907 29.3825913,22.3630805 C28.9173391,22.2585298 28.6424174,21.8194166 28.7270087,21.3803034 L30.2708,14.2499417 C30.3765391,13.7899183 30.8206435,13.5180863 31.2647478,13.601727 C31.73,13.7062777 32.0260696,14.1453909 31.9203304,14.5845041 L31.9203304,14.5845041 Z" id="形状" fill="#FF7423"></path>
                    <path d="M7.02933913,7.83052509 C7.09278261,7.83052509 7.17737391,7.83052509 7.26196522,7.80961494 C7.70606957,7.68415403 7.9809913,7.22413069 7.85410435,6.7850175 L7.68492174,6.15771295 L6.3526087,1.26473746 C6.14113043,0.532882146 5.4644,0.0310385059 4.70307826,0.0310385059 L0.854173913,0.0310385059 C0.388921739,0.0310385059 0.00826086957,0.407421236 0.00826086957,0.867444574 C0.00826086957,1.32746791 0.388921739,1.70385064 0.854173913,1.70385064 L4.70307826,1.70385064 L5.92965217,6.15771295 L6.22572174,7.20322054 C6.33146087,7.57960327 6.66982609,7.83052509 7.02933913,7.83052509 L7.02933913,7.83052509 Z" id="路径" fill="#FF7423"></path>
                    <path d="M31.2647478,13.601727 C30.7994957,13.4971762 30.3553913,13.7899183 30.2708,14.2499417 L28.7270087,21.3803034 C28.6212696,21.8403267 28.9173391,22.2794399 29.3825913,22.3630805 C29.4460348,22.3839907 29.5094783,22.3839907 29.5517739,22.3839907 C29.9324348,22.3839907 30.2919478,22.1121587 30.3765391,21.7148658 L31.9203304,14.5845041 C32.0260696,14.1453909 31.73,13.7062777 31.2647478,13.601727 L31.2647478,13.601727 Z" id="路径" fill="#FFF9E4"></path>
                    <path d="M9.73626087,10.297923 C9.73626087,10.7598573 10.114989,11.1343291 10.5821739,11.1343291 C11.0493588,11.1343291 11.428087,10.7598573 11.428087,10.297923 C11.428087,9.83598867 11.0493588,9.46151692 10.5821739,9.46151692 C10.114989,9.46151692 9.73626087,9.83598867 9.73626087,10.297923 Z" id="路径" fill="#FFF9E4"></path>
                    <path d="M13.3948348,28.7406768 C12.6969565,29.4307118 12.2951478,30.3507585 12.274,31.3335356 C12.2528522,32.3163127 12.633513,33.2363594 13.3313913,33.9263944 C14.0081217,34.5955193 14.9174783,34.971902 15.8902783,34.971902 L15.9537217,34.971902 C16.9476696,34.9509918 17.8570261,34.5746091 18.5760522,33.8636639 C19.2739304,33.1736289 19.6757391,32.2535823 19.696887,31.2708051 C19.7180348,30.288028 19.3373739,29.3679813 18.6394957,28.6779463 C17.2014435,27.256056 14.8540348,27.2978763 13.3948348,28.7406768 L13.3948348,28.7406768 Z M27.7753565,28.7406768 C26.3161565,30.1834772 26.2950087,32.5045041 27.711913,33.9054842 C28.4097913,34.5955193 29.3402957,34.9509918 30.2708,34.9509918 C31.2224522,34.9509918 32.1952522,34.5746091 32.9354261,33.8427538 C34.3946261,32.3999533 34.4157739,30.0789265 32.9988696,28.6779463 C31.5819652,27.2769662 29.2345565,27.2978763 27.7753565,28.7406768 L27.7753565,28.7406768 Z" id="形状" fill="#FF7423"></path>
                </g>
            </g>
        </g>
    </g>
</svg>